<svg t="1716006237008" class="icon" viewBox="0 0 1024 1024" version="1.1" xmlns="http://www.w3.org/2000/svg" p-id="12400" width="200" height="200"><path d="M738.826039 1005.166431c-150.226824 0-272.00251-121.916235-272.00251-272.303686 0-150.407529 121.775686-272.323765 272.00251-272.323765 150.206745 0 271.982431 121.916235 271.982432 272.323765 0 150.387451-121.775686 272.303686-271.982432 272.303686z m-0.040157-508.225255c-128.582275 0-232.789333 104.347608-232.789333 233.09051s104.207059 233.110588 232.789333 233.110589c128.562196 0 232.769255-104.367686 232.769255-233.110589 0-128.742902-104.207059-233.09051-232.769255-233.09051z m10.561255 318.243138s-3.694431 3.674353-7.408941 3.674353a18.010353 18.010353 0 0 1-25.941333 0l-74.10949-80.916079a17.66902 17.66902 0 0 1 0-25.740549c7.408941-7.368784 22.246902-7.368784 25.941333 0l63.006118 69.872941 129.686588-117.699764a18.010353 18.010353 0 0 1 25.941333 0 17.709176 17.709176 0 0 1 0 25.760627L749.347137 815.184314zM391.529412 682.666667H190.745098a20.078431 20.078431 0 0 1 0-40.156863h200.784314a20.078431 20.078431 0 1 1 0 40.156863zM170.666667 261.019608a20.078431 20.078431 0 0 1 20.078431-20.078432h481.882353a20.078431 20.078431 0 0 1 0 40.156863H190.745098a20.078431 20.078431 0 0 1-20.078431-20.078431z m341.333333 200.784314H190.745098a20.078431 20.078431 0 0 1 0-40.156863h321.254902a20.078431 20.078431 0 0 1 0 40.156863zM813.176471 120.470588a80.313725 80.313725 0 0 0-80.313726-80.313725H130.509804a80.313725 80.313725 0 0 0-80.313726 80.313725v762.980392a80.313725 80.313725 0 0 0 80.313726 80.313726h366.832941a346.112 346.112 0 0 0 40.417882 40.779294H130.509804a120.470588 120.470588 0 0 1-120.470588-120.470588V120.470588a120.470588 120.470588 0 0 1 120.470588-120.470588h602.352941a120.470588 120.470588 0 0 1 120.470588 120.470588v293.667137a340.188863 340.188863 0 0 0-40.156862-8.533333V120.470588z" fill="currentColor" p-id="12401"></path></svg>