<svg t="1716006583362" class="icon" viewBox="0 0 1024 1024" version="1.1" xmlns="http://www.w3.org/2000/svg" p-id="38505" width="200" height="200"><path d="M733.696 666.624l56.32-65.536-15.36-12.8c-41.472-34.816-87.552-61.44-136.192-79.36 75.264-49.152 124.928-134.144 124.928-230.912 0-152.576-123.904-276.48-276.48-276.48-74.24 0-143.872 28.672-195.584 80.384-52.224 51.712-80.896 121.344-80.896 195.584 0 92.16 45.568 174.08 115.2 224.256-81.408 26.624-156.672 74.752-215.552 144.896C34.304 736.768-4.096 850.944 0.512 968.192l1.024 20.48 86.528-4.608-1.024-19.968c-4.096-96.256 27.136-188.928 88.576-261.12 136.704-162.816 380.416-184.32 543.232-48.64l14.848 12.288zM296.96 278.016c0-106.496 83.456-189.952 189.952-189.952 104.96 0 189.952 84.992 189.952 189.952 0 106.496-83.456 189.952-189.952 189.952S296.96 384.512 296.96 278.016z m690.688 522.24H802.304c13.824-16.896 32.256-38.4 55.808-67.072 7.68-8.192 11.776-19.456 10.752-31.744-1.024-11.776-6.144-22.528-15.36-29.696-8.192-7.68-19.456-11.264-31.232-10.752-12.288 1.024-23.04 6.656-30.208 15.872-38.4 45.568-96.256 114.176-101.376 119.808-7.68 7.68-10.752 15.36-13.312 22.528-4.096 8.704-4.096 16.384-4.096 24.064 0 5.632 0 12.8 3.584 23.04 2.56 7.68 6.144 15.872 13.824 23.552l104.96 124.416 4.096 2.048c9.216 4.096 18.432 6.144 26.624 6.144 8.704 0 21.504-4.096 28.672-11.776 8.704-8.704 13.824-19.968 14.336-31.744 0-10.752-3.584-20.48-11.264-28.16l-54.272-63.488h183.296c19.456 0 35.84-18.944 36.352-43.008v-0.512c0.512-25.088-14.848-43.52-35.84-43.52z" fill="currentColor" p-id="38506"></path></svg>