<svg t="1715953932254" class="icon" viewBox="0 0 1024 1024" version="1.1" xmlns="http://www.w3.org/2000/svg" p-id="11266" width="200" height="200"><path d="M955.59576334 565.84816928C921.71190561 470.40769794 828.48968821 401.08719229 717.79871055 401.08719229c-111.30100029 0-204.91141024 70.09689085-238.29616047 166.36920831h-253.43576475c-26.23088067 0-47.5261393 24.84446618-47.5261329 55.45640711s21.2952586 55.4564006 47.5261329 55.45640054h242.73267482c6.54385326 41.3150179 23.95716606 79.02537397 49.30074631 110.91280755h-292.03342113c-26.23088067 0-47.5261393 24.84446618-47.5261329 55.45640061s21.2952586 55.4564006 47.5261329 55.45640059h214.0617167a376.93717152 376.93717152 0 0 0-33.44021086 110.91280754h-292.47706801a46.36155474 46.36155474 0 0 1-45.91790151-46.8052016V169.1685161c0-25.06629616 21.23980441-45.36333956 47.35977009-45.3633331h63.38666838v55.45640059c0 50.07713168 67.6013528 55.4564006 110.91280122 55.45640061 43.31144833 0 88.50841878 5.76746809 88.5084187-55.45640061v-55.45640059h44.53149358v55.45640059c0 61.22386864 38.15400297 55.4564006 88.84115713 55.45640061 50.74260854 0 88.56387296 5.76746809 88.56387308-55.45640061v-55.45640059h44.19875511v55.45640059c0 61.22386864 38.43128719 55.4564006 89.11844137 55.45640061s110.91280771-2.82827659 110.91280118-55.45640061v-55.45640059h63.44212904a47.69250853 47.69250853 0 0 1 47.74796275 47.63704778l-0.22182994 394.4059385zM407.96379074 345.63079175h-181.95245955c-26.23088067 0-47.5261393 24.84446618-47.52613946 55.45640054s21.2952586 55.4564006 47.52613946 55.45640711h181.95245955c26.23088067 0 47.5261393-24.84446618 47.52613268-55.45640711s-21.2952586-55.4564006-47.52613268-55.45640054z m325.75090957-166.36920816c-30.61193437 0-55.4564006-18.63335139-55.45640712-41.59230208v-83.18460405c0-22.95895071 24.84446618-41.59230206 55.45640712-41.592302s55.4564006 18.63335139 55.4564006 41.592302v83.18460405c0 22.95895071-24.84446618 41.59230206-55.4564006 41.59230208z m-222.71291552 0c-30.61193437 0-55.4009463-18.63335139-55.4009464-41.59230208v-83.18460405c0-22.95895071 24.84446618-41.59230206 55.4009464-41.592302 30.61193437 0 55.4564006 18.63335139 55.45640054 41.592302v83.18460405c-0.0554542 22.95895071-24.84446618 41.59230206-55.45640054 41.59230208z m-220.6610244 0c-30.61193437 0-55.4009463-18.63335139-55.40094634-41.59230208v-83.18460405c0-22.95895071 24.84446618-41.59230206 55.40094634-41.592302 30.61193437 0 55.4564006 18.63335139 55.45640063 41.592302v83.18460405c0 22.95895071-24.84446618 41.59230206-55.45640063 41.59230208z m443.31847922 665.92048622c-91.28124099 0-165.53736215-74.69977454-165.53736218-166.59103817 0-91.83580289 74.2561211-166.59103164 165.53736218-166.59103164s165.53736215 74.75522879 165.53736218 166.59103164-74.2561211 166.59103164-165.53736218 166.59103817z m-115.73750824-29.33644132c32.1647114 24.45627358 71.98241282 39.59587158 115.68205395 39.59587144 44.14329437 0 84.34918863-15.47233629 116.68026924-40.3722568a235.13514545 235.13514545 0 0 1 105.14533952 195.98292729h-443.6512175c0-80.35632762 41.92504052-153.94697186 106.14355479-195.20654193z" fill="currentColor" p-id="11267"></path></svg>