<svg t="1716005059256" class="icon" viewBox="0 0 1024 1024" version="1.1" xmlns="http://www.w3.org/2000/svg" p-id="3268" width="200" height="200"><path d="M497.798958 952.225272A345.95419 345.95419 0 0 1 359.273733 892.652247a171.541601 171.541601 0 0 0 7.177473-47.37132A179.436821 179.436821 0 0 0 211.417793 665.126359a345.95419 345.95419 0 0 1 185.896546-380.40606 179.436821 179.436821 0 0 0 317.244299 0 351.696169 351.696169 0 0 1 143.549456 128.476763 35.169617 35.169617 0 0 0 30.145386 16.508188 37.322859 37.322859 0 0 0 19.379177-5.024231 36.605111 36.605111 0 0 0 10.766209-46.653574 424.188644 424.188644 0 0 0-183.743304-160.775391v-13.637198a180.872315 180.872315 0 1 0-358.873642 0 129.194511 129.194511 0 0 0 0 15.79044A423.470897 423.470897 0 0 0 132.465591 600.529103a467.253481 467.253481 0 0 0 6.459726 71.774728A180.154568 180.154568 0 0 0 187.014385 1024a178.001326 178.001326 0 0 0 139.96072-68.185992 430.64837 430.64837 0 0 0 158.62215 62.444014h6.459725a35.887364 35.887364 0 0 0 5.741978-71.774729z m57.419783-861.29674a109.097587 109.097587 0 1 1-108.37984 110.533082A109.097587 109.097587 0 0 1 555.218741 90.928532zM187.014385 952.225272a109.097587 109.097587 0 1 1 108.37984-108.37984A109.097587 109.097587 0 0 1 187.014385 952.225272zM933.471559 617.755038l-104.791103-71.774728a35.887364 35.887364 0 0 0-48.089068 8.612967L560.242972 858.918125a37.322859 37.322859 0 0 0-6.459725 24.403408l9.330714 104.073356a35.169617 35.169617 0 0 0 14.354946 25.838902 38.758353 38.758353 0 0 0 21.532418 7.177473h7.177473l98.331378-21.532419a38.758353 38.758353 0 0 0 22.250166-14.354946L945.673263 665.126359a36.605111 36.605111 0 0 0 5.741978-27.274397 37.322859 37.322859 0 0 0-17.943682-20.096924zM675.800285 930.692853l-45.218079 9.330715-4.306484-49.524563 193.791766-262.695505 45.218079 29.427638z m311.50232-399.067489l-103.355608-66.750497a35.887364 35.887364 0 0 0-49.524563 10.048462 35.169617 35.169617 0 0 0 10.766209 49.524562L947.826505 593.35163a34.45187 34.45187 0 0 0 20.096924 5.741979 37.322859 37.322859 0 0 0 30.145386-15.790441 36.605111 36.605111 0 0 0-10.76621-51.677804z" fill="currentColor" p-id="3269"></path></svg>