<svg t="1716005941920" class="icon" viewBox="0 0 1024 1024" version="1.1" xmlns="http://www.w3.org/2000/svg" p-id="6808" width="200" height="200"><path d="M739.555556 512a256 256 0 1 1 0 512 256 256 0 0 1 0-512z m18.887111-512a180.167111 180.167111 0 0 1 179.882666 169.870222l0.284445 10.24v311.068445a28.444444 28.444444 0 0 1-56.433778 5.12l-0.455111-5.12V180.110222a123.278222 123.278222 0 0 0-114.460445-122.936889l-8.817777-0.341333H209.237333a123.278222 123.278222 0 0 0-122.993777 114.460444l-0.284445 8.817778v662.641778c0 65.080889 50.460444 118.385778 114.460445 122.88l8.817777 0.341333h283.875556a28.444444 28.444444 0 0 1 5.12 56.433778l-5.12 0.455111h-283.875556a180.167111 180.167111 0 0 1-179.882666-169.927111l-0.284445-10.24V180.167111A180.167111 180.167111 0 0 1 198.997333 0.227556L209.237333 0h549.205334zM739.555556 568.888889a199.111111 199.111111 0 1 0 0 398.222222 199.111111 199.111111 0 0 0 0-398.222222z m115.712 314.026667a14.222222 14.222222 0 0 1 0 28.444444h-222.890667a14.222222 14.222222 0 0 1 0-28.444444h222.890667z m-45.738667-227.555556a74.126222 74.126222 0 0 1-37.660445 95.459556v24.234666c0 6.257778 5.12 11.377778 11.377778 11.377778h51.313778c19.057778-0.170667 34.645333 16.042667 34.929778 36.295111v25.486222a11.377778 11.377778 0 0 1-11.377778 11.377778h-228.579556a11.377778 11.377778 0 0 1-11.377777-11.377778v-25.486222c0.512-20.48 16.213333-36.693333 35.271111-36.295111h51.143111a11.377778 11.377778 0 0 0 11.377778-11.377778v-24.291555c-16.440889-7.793778-32.426667-21.674667-39.253334-38.570667a73.500444 73.500444 0 0 1 36.295111-95.459556c35.328-16.497778 81.123556 0.967111 96.540445 38.684445zM360.789333 682.666667a28.444444 28.444444 0 0 1 5.12 56.433777l-5.12 0.455112H199.111111a28.444444 28.444444 0 0 1-5.12-56.433778L199.111111 682.666667h161.678222z m113.777778-227.555556a28.444444 28.444444 0 0 1 5.12 56.433778L474.510222 512H199.111111a28.444444 28.444444 0 0 1-5.12-56.433778L199.111111 455.111111h275.456zM768 227.555556a28.444444 28.444444 0 0 1 5.12 56.433777L768 284.444444H199.111111a28.444444 28.444444 0 0 1-5.12-56.433777L199.111111 227.555556h568.888889z" fill="currentColor" p-id="6809"></path></svg>