<svg t="1716004936483" class="icon" viewBox="0 0 1024 1024" version="1.1" xmlns="http://www.w3.org/2000/svg" p-id="2712" width="200" height="200"><path d="M1024.99477 113.778v227.555a57.458 57.458 0 0 1-58.027 56.89H734.86277a57.458 57.458 0 0 1-58.027-56.89v-56.889H560.83877v455.112h115.996v-56.89a57.458 57.458 0 0 1 58.027-56.888h231.936a57.458 57.458 0 0 1 58.197 56.889v227.555a57.458 57.458 0 0 1-58.027 56.89H734.86277a57.458 57.458 0 0 1-58.027-56.89v-56.889H502.86877a57.458 57.458 0 0 1-58.027-56.889V568.89L274.51677 735.972a46.763 46.763 0 0 1-65.252 0l-195.754-192a44.658 44.658 0 0 1 0-64l195.754-192.057a46.763 46.763 0 0 1 65.252 0L445.01277 455.11V227.556a57.458 57.458 0 0 1 58.027-56.89h173.966v-56.888a57.458 57.458 0 0 1 58.026-56.89h231.936a57.458 57.458 0 0 1 58.027 56.89z" fill="currentColor" p-id="2713"></path></svg>