<?xml version="1.0" encoding="UTF-8"?>
<svg t="1746072313369" class="icon" viewBox="0 0 1024 1024" version="1.1" xmlns="http://www.w3.org/2000/svg" p-id="1576" width="200" height="200">
  <path d="M512 85.333333C276.48 85.333333 85.333333 276.48 85.333333 512s191.146667 426.666667 426.666667 426.666667 426.666667-191.146667 426.666667-426.666667S747.52 85.333333 512 85.333333zM301.653333 779.946667c18.346667-38.4 130.133333-75.946667 210.346667-75.946667s192.426667 37.546667 210.346667 75.946667A336.768 336.768 0 0 1 512 853.333333c-79.36 0-152.32-27.306667-210.346667-73.386666z m481.706667-61.866667c-61.013333-74.24-209.066667-99.413333-271.36-99.413333s-210.346667 25.173333-271.36 99.413333A339.2 339.2 0 0 1 170.666667 512c0-188.16 153.173333-341.333333 341.333333-341.333333s341.333333 153.173333 341.333333 341.333333c0 77.653333-26.453333 148.906667-69.973333 206.08zM512 256c-82.773333 0-149.333333 66.56-149.333333 149.333333S429.226667 554.666667 512 554.666667s149.333333-66.56 149.333333-149.333334S594.773333 256 512 256z m0 213.333333c-35.413333 0-64-28.586667-64-64S476.586667 341.333333 512 341.333333s64 28.586667 64 64S547.413333 469.333333 512 469.333333z" fill="#2B82B4" p-id="1577"></path>
</svg> 